<mxfile host="app.diagrams.net" agent="Mozilla/5.0 (Windows NT 10.0; Win64; x64) AppleWebKit/537.36 (KHTML, like Gecko) Chrome/137.0.0.0 Safari/537.36" version="27.1.6">
  <diagram name="Page-1" id="ip6bYnbNu4ROsTfXAZsh">
    <mxGraphModel dx="1826" dy="743" grid="0" gridSize="10" guides="1" tooltips="1" connect="1" arrows="1" fold="1" page="0" pageScale="1" pageWidth="850" pageHeight="1100" math="0" shadow="0">
      <root>
        <mxCell id="0" />
        <mxCell id="1" parent="0" />
        <mxCell id="bAiAI7SaLjIxBLoK_pn7-2" value="&lt;font style=&quot;color: rgb(64, 159, 159);&quot;&gt;&amp;lt;CreateView&amp;gt;&lt;/font&gt;" style="text;html=1;align=center;verticalAlign=middle;resizable=0;points=[];autosize=1;strokeColor=none;fillColor=none;labelBackgroundColor=none;strokeWidth=3;perimeterSpacing=2;fontSize=17;" parent="1" vertex="1">
          <mxGeometry x="86.5" y="188" width="125" height="32" as="geometry" />
        </mxCell>
        <mxCell id="bAiAI7SaLjIxBLoK_pn7-23" style="edgeStyle=orthogonalEdgeStyle;rounded=0;hachureGap=4;orthogonalLoop=1;jettySize=auto;html=1;fontFamily=Architects Daughter;fontSource=https%3A%2F%2Ffonts.googleapis.com%2Fcss%3Ffamily%3DArchitects%2BDaughter;" parent="1" source="bAiAI7SaLjIxBLoK_pn7-3" target="bAiAI7SaLjIxBLoK_pn7-21" edge="1">
          <mxGeometry relative="1" as="geometry" />
        </mxCell>
        <mxCell id="bAiAI7SaLjIxBLoK_pn7-3" value="" style="rounded=1;whiteSpace=wrap;html=1;labelBackgroundColor=none;" parent="1" vertex="1">
          <mxGeometry x="89" y="223" width="393" height="118" as="geometry" />
        </mxCell>
        <mxCell id="bAiAI7SaLjIxBLoK_pn7-11" value="&lt;div style=&quot;color: rgb(204, 204, 204); font-family: Consolas, &amp;quot;Courier New&amp;quot;, monospace; line-height: 19px; white-space-collapse: preserve;&quot;&gt;&lt;font style=&quot;font-size: 10px;&quot;&gt;&lt;font style=&quot;&quot;&gt;&lt;span style=&quot;color: rgb(128, 128, 128);&quot;&gt;&amp;lt;&lt;/span&gt;&lt;span style=&quot;color: rgb(78, 201, 176);&quot;&gt;Calendar&lt;/span&gt;&lt;span style=&quot;color: rgb(128, 128, 128);&quot;&gt;/ &lt;/span&gt;&lt;/font&gt;&lt;span style=&quot;color: rgb(156, 220, 254);&quot;&gt;contents&lt;/span&gt;&lt;span style=&quot;color: rgb(212, 212, 212);&quot;&gt;=&lt;/span&gt;&lt;span style=&quot;color: rgb(86, 156, 214);&quot;&gt;{&lt;/span&gt;&lt;span style=&quot;color: rgb(79, 193, 255);&quot;&gt;contents&lt;/span&gt;&lt;span style=&quot;color: rgb(86, 156, 214);&quot;&gt;}&lt;/span&gt;&lt;span style=&quot;color: light-dark(rgb(128, 128, 128), rgb(127, 127, 127)); background-color: transparent;&quot;&gt;()&amp;gt;&lt;/span&gt;&lt;/font&gt;&lt;/div&gt;" style="text;html=1;align=center;verticalAlign=middle;resizable=0;points=[];autosize=1;strokeColor=none;fillColor=none;labelBackgroundColor=none;" parent="1" vertex="1">
          <mxGeometry x="262" y="282" width="199" height="32" as="geometry" />
        </mxCell>
        <mxCell id="bAiAI7SaLjIxBLoK_pn7-12" value="&lt;div style=&quot;font-family: Consolas, &amp;quot;Courier New&amp;quot;, monospace; line-height: 19px; white-space-collapse: preserve; color: rgb(204, 204, 204);&quot;&gt;&lt;font style=&quot;font-size: 11px;&quot;&gt;&lt;span style=&quot;color: rgb(128, 128, 128);&quot;&gt;&amp;lt;&lt;/span&gt;&lt;span style=&quot;color: rgb(128, 128, 128);&quot;&gt;&lt;font color=&quot;#4ec9b0&quot;&gt;CreateBlock&lt;/font&gt;&lt;/span&gt;&lt;span style=&quot;color: rgb(128, 128, 128);&quot;&gt;/&amp;gt;&lt;/span&gt;&lt;/font&gt;&lt;/div&gt;" style="text;html=1;align=center;verticalAlign=middle;resizable=0;points=[];autosize=1;strokeColor=none;fillColor=none;labelBackgroundColor=none;" parent="1" vertex="1">
          <mxGeometry x="97.5" y="304" width="103" height="31" as="geometry" />
        </mxCell>
        <mxCell id="bAiAI7SaLjIxBLoK_pn7-13" value="&lt;div style=&quot;font-family: Consolas, &amp;quot;Courier New&amp;quot;, monospace; line-height: 19px; white-space-collapse: preserve; color: rgb(204, 204, 204);&quot;&gt;&lt;font style=&quot;font-size: 11px;&quot;&gt;&lt;span style=&quot;color: rgb(128, 128, 128);&quot;&gt;&amp;lt;&lt;/span&gt;&lt;span style=&quot;color: rgb(128, 128, 128);&quot;&gt;&lt;font color=&quot;#4ec9b0&quot;&gt;ContentOut&lt;/font&gt;&lt;/span&gt;&lt;span style=&quot;color: rgb(128, 128, 128);&quot;&gt;/&amp;gt;&lt;/span&gt;&lt;/font&gt;&lt;/div&gt;" style="text;html=1;align=center;verticalAlign=middle;resizable=0;points=[];autosize=1;strokeColor=none;fillColor=none;labelBackgroundColor=none;" parent="1" vertex="1">
          <mxGeometry x="100.5" y="283" width="97" height="31" as="geometry" />
        </mxCell>
        <mxCell id="bAiAI7SaLjIxBLoK_pn7-19" style="edgeStyle=orthogonalEdgeStyle;rounded=1;hachureGap=4;orthogonalLoop=1;jettySize=auto;html=1;fontFamily=Architects Daughter;fontSource=https%3A%2F%2Ffonts.googleapis.com%2Fcss%3Ffamily%3DArchitects%2BDaughter;strokeColor=default;shadow=0;flowAnimation=0;jumpStyle=none;fillColor=#0050ef;curved=0;" parent="1" source="bAiAI7SaLjIxBLoK_pn7-14" target="bAiAI7SaLjIxBLoK_pn7-11" edge="1">
          <mxGeometry relative="1" as="geometry">
            <Array as="points">
              <mxPoint x="198" y="274" />
              <mxPoint x="312" y="274" />
              <mxPoint x="312" y="262" />
              <mxPoint x="362" y="262" />
            </Array>
          </mxGeometry>
        </mxCell>
        <mxCell id="bAiAI7SaLjIxBLoK_pn7-14" value="&lt;div style=&quot;color: rgb(204, 204, 204); font-family: Consolas, &amp;quot;Courier New&amp;quot;, monospace; line-height: 19px; white-space-collapse: preserve;&quot;&gt;&lt;font style=&quot;font-size: 11px;&quot;&gt;&lt;span style=&quot;color: rgb(86, 156, 214);&quot;&gt;const&lt;/span&gt; [&lt;span style=&quot;color: rgb(79, 193, 255);&quot;&gt;contents&lt;/span&gt;, &lt;span style=&quot;color: rgb(220, 220, 170);&quot;&gt;setContents&lt;/span&gt;]&lt;/font&gt;&lt;/div&gt;" style="text;html=1;align=center;verticalAlign=middle;resizable=0;points=[];autosize=1;strokeColor=none;fillColor=none;labelBackgroundColor=none;" parent="1" vertex="1">
          <mxGeometry x="101" y="223" width="193" height="31" as="geometry" />
        </mxCell>
        <mxCell id="bAiAI7SaLjIxBLoK_pn7-21" value="" style="rounded=1;whiteSpace=wrap;html=1;hachureGap=4;fontFamily=Architects Daughter;fontSource=https%3A%2F%2Ffonts.googleapis.com%2Fcss%3Ffamily%3DArchitects%2BDaughter;strokeColor=default;fillColor=none;glass=0;" parent="1" vertex="1">
          <mxGeometry x="576" y="352" width="162" height="245" as="geometry" />
        </mxCell>
        <mxCell id="bAiAI7SaLjIxBLoK_pn7-22" value="&lt;font style=&quot;color: rgb(64, 159, 159);&quot;&gt;&amp;lt;Calendar&amp;gt;&lt;/font&gt;" style="text;html=1;align=center;verticalAlign=middle;resizable=0;points=[];autosize=1;strokeColor=none;fillColor=none;labelBackgroundColor=none;strokeWidth=3;perimeterSpacing=2;fontSize=17;" parent="1" vertex="1">
          <mxGeometry x="603.5" y="360" width="107" height="32" as="geometry" />
        </mxCell>
        <mxCell id="bAiAI7SaLjIxBLoK_pn7-24" value="&lt;div style=&quot;font-family: Consolas, &amp;quot;Courier New&amp;quot;, monospace; line-height: 19px; white-space-collapse: preserve; color: rgb(204, 204, 204);&quot;&gt;&lt;font style=&quot;font-size: 11px;&quot;&gt;&lt;span style=&quot;color: rgb(128, 128, 128);&quot;&gt;&amp;lt;&lt;/span&gt;&lt;span style=&quot;color: rgb(128, 128, 128);&quot;&gt;&lt;font color=&quot;#4ec9b0&quot;&gt;Day&lt;/font&gt;&lt;/span&gt;&lt;span style=&quot;color: rgb(128, 128, 128);&quot;&gt;/&amp;gt;&lt;/span&gt;&lt;/font&gt;&lt;/div&gt;" style="text;html=1;align=center;verticalAlign=middle;resizable=0;points=[];autosize=1;strokeColor=none;fillColor=none;labelBackgroundColor=none;" parent="1" vertex="1">
          <mxGeometry x="603.5" y="380" width="54" height="31" as="geometry" />
        </mxCell>
        <mxCell id="bAiAI7SaLjIxBLoK_pn7-25" value="&lt;div style=&quot;font-family: Consolas, &amp;quot;Courier New&amp;quot;, monospace; line-height: 19px; white-space-collapse: preserve; color: rgb(204, 204, 204);&quot;&gt;&lt;font style=&quot;font-size: 11px;&quot;&gt;&lt;span style=&quot;color: rgb(128, 128, 128);&quot;&gt;&amp;lt;&lt;/span&gt;&lt;span style=&quot;color: rgb(128, 128, 128);&quot;&gt;&lt;font color=&quot;#4ec9b0&quot;&gt;Day&lt;/font&gt;&lt;/span&gt;&lt;span style=&quot;color: rgb(128, 128, 128);&quot;&gt;/&amp;gt;&lt;/span&gt;&lt;/font&gt;&lt;/div&gt;" style="text;html=1;align=center;verticalAlign=middle;resizable=0;points=[];autosize=1;strokeColor=none;fillColor=none;labelBackgroundColor=none;" parent="1" vertex="1">
          <mxGeometry x="603.5" y="403" width="54" height="31" as="geometry" />
        </mxCell>
        <mxCell id="bAiAI7SaLjIxBLoK_pn7-26" value="&lt;div style=&quot;font-family: Consolas, &amp;quot;Courier New&amp;quot;, monospace; line-height: 19px; white-space-collapse: preserve; color: rgb(204, 204, 204);&quot;&gt;&lt;font style=&quot;font-size: 11px;&quot;&gt;&lt;span style=&quot;color: rgb(128, 128, 128);&quot;&gt;&amp;lt;&lt;/span&gt;&lt;span style=&quot;color: rgb(128, 128, 128);&quot;&gt;&lt;font color=&quot;#4ec9b0&quot;&gt;Day&lt;/font&gt;&lt;/span&gt;&lt;span style=&quot;color: rgb(128, 128, 128);&quot;&gt;/&amp;gt;&lt;/span&gt;&lt;/font&gt;&lt;/div&gt;" style="text;html=1;align=center;verticalAlign=middle;resizable=0;points=[];autosize=1;strokeColor=none;fillColor=none;labelBackgroundColor=none;" parent="1" vertex="1">
          <mxGeometry x="603.5" y="424" width="54" height="31" as="geometry" />
        </mxCell>
        <mxCell id="bAiAI7SaLjIxBLoK_pn7-36" style="rounded=0;hachureGap=4;orthogonalLoop=1;jettySize=auto;html=1;fontFamily=Architects Daughter;fontSource=https%3A%2F%2Ffonts.googleapis.com%2Fcss%3Ffamily%3DArchitects%2BDaughter;entryX=0.989;entryY=0.432;entryDx=0;entryDy=0;entryPerimeter=0;edgeStyle=orthogonalEdgeStyle;" parent="1" source="bAiAI7SaLjIxBLoK_pn7-31" target="bAiAI7SaLjIxBLoK_pn7-39" edge="1">
          <mxGeometry relative="1" as="geometry">
            <mxPoint x="416.4" y="458.5" as="targetPoint" />
          </mxGeometry>
        </mxCell>
        <mxCell id="bAiAI7SaLjIxBLoK_pn7-31" value="&lt;div style=&quot;font-family: Consolas, &amp;quot;Courier New&amp;quot;, monospace; line-height: 19px; white-space-collapse: preserve; color: rgb(204, 204, 204);&quot;&gt;&lt;font style=&quot;font-size: 11px;&quot;&gt;&lt;span style=&quot;color: rgb(128, 128, 128);&quot;&gt;&amp;lt;&lt;/span&gt;&lt;span style=&quot;color: rgb(128, 128, 128);&quot;&gt;&lt;font color=&quot;#4ec9b0&quot;&gt;Day&lt;/font&gt;&lt;/span&gt;&lt;span style=&quot;color: rgb(128, 128, 128);&quot;&gt;/&amp;gt;&lt;/span&gt;&lt;/font&gt;&lt;/div&gt;" style="text;html=1;align=center;verticalAlign=middle;resizable=0;points=[];autosize=1;strokeColor=none;fillColor=none;labelBackgroundColor=none;" parent="1" vertex="1">
          <mxGeometry x="607" y="463" width="54" height="31" as="geometry" />
        </mxCell>
        <mxCell id="bAiAI7SaLjIxBLoK_pn7-33" value="&lt;font style=&quot;color: rgb(136, 136, 0);&quot;&gt;OnClick()&amp;nbsp;&lt;/font&gt;&lt;div&gt;&lt;font color=&quot;#888800&quot;&gt;&lt;br&gt;&lt;/font&gt;&lt;div style=&quot;text-align: left;&quot;&gt;send the date of clicked date and check in Contents what content.date is that and display all contents of this day.&lt;/div&gt;&lt;div style=&quot;text-align: left;&quot;&gt;&lt;br&gt;&lt;/div&gt;&lt;/div&gt;" style="shape=note;whiteSpace=wrap;html=1;backgroundOutline=1;fontColor=#000000;darkOpacity=0.05;fillColor=#FFF9B2;strokeColor=none;fillStyle=solid;direction=west;gradientDirection=north;gradientColor=#FFF2A1;shadow=1;size=20;pointerEvents=1;hachureGap=4;fontFamily=Architects Daughter;fontSource=https%3A%2F%2Ffonts.googleapis.com%2Fcss%3Ffamily%3DArchitects%2BDaughter;perimeterSpacing=0;noLabel=0;portConstraintRotation=0;snapToPoint=0;container=0;recursiveResize=1;fixedWidth=0;dropTarget=0;fixDash=0;movable=1;" parent="1" vertex="1">
          <mxGeometry x="787" y="398" width="189" height="165" as="geometry">
            <mxRectangle x="787" y="398" width="673" height="70" as="alternateBounds" />
          </mxGeometry>
        </mxCell>
        <mxCell id="bAiAI7SaLjIxBLoK_pn7-38" value="&lt;font color=&quot;#409f9f&quot;&gt;&amp;lt;InsideBlockView&amp;gt;&lt;/font&gt;" style="text;html=1;align=center;verticalAlign=middle;resizable=0;points=[];autosize=1;strokeColor=none;fillColor=none;labelBackgroundColor=none;strokeWidth=3;perimeterSpacing=2;fontSize=17;" parent="1" vertex="1">
          <mxGeometry x="221.5" y="402" width="161" height="32" as="geometry" />
        </mxCell>
        <mxCell id="bAiAI7SaLjIxBLoK_pn7-39" value="" style="rounded=1;whiteSpace=wrap;html=1;hachureGap=4;fontFamily=Architects Daughter;fontSource=https%3A%2F%2Ffonts.googleapis.com%2Fcss%3Ffamily%3DArchitects%2BDaughter;strokeColor=default;fillColor=none;glass=0;fontStyle=1" parent="1" vertex="1">
          <mxGeometry x="221" y="434" width="162" height="245" as="geometry" />
        </mxCell>
        <mxCell id="bAiAI7SaLjIxBLoK_pn7-41" value="&lt;div style=&quot;font-family: Consolas, &amp;quot;Courier New&amp;quot;, monospace; line-height: 19px; white-space-collapse: preserve; color: rgb(204, 204, 204);&quot;&gt;&lt;font style=&quot;font-size: 11px;&quot;&gt;&lt;span style=&quot;color: rgb(128, 128, 128);&quot;&gt;&amp;lt;&lt;/span&gt;&lt;span style=&quot;color: rgb(128, 128, 128);&quot;&gt;&lt;font color=&quot;#4ec9b0&quot;&gt;ContentOut&lt;/font&gt;&lt;/span&gt;&lt;span style=&quot;color: rgb(128, 128, 128);&quot;&gt;/&amp;gt;&lt;/span&gt;&lt;/font&gt;&lt;/div&gt;" style="text;html=1;align=center;verticalAlign=middle;resizable=0;points=[];autosize=1;strokeColor=none;fillColor=none;labelBackgroundColor=none;" parent="1" vertex="1">
          <mxGeometry x="233" y="443" width="97" height="31" as="geometry" />
        </mxCell>
        <mxCell id="bAiAI7SaLjIxBLoK_pn7-43" value="&lt;div style=&quot;font-family: Consolas, &amp;quot;Courier New&amp;quot;, monospace; line-height: 19px; white-space-collapse: preserve; color: rgb(204, 204, 204);&quot;&gt;&lt;font style=&quot;font-size: 11px;&quot;&gt;&lt;span style=&quot;color: rgb(128, 128, 128);&quot;&gt;&amp;lt;&lt;/span&gt;&lt;span style=&quot;color: rgb(128, 128, 128);&quot;&gt;&lt;font color=&quot;#4ec9b0&quot;&gt;CreateBlock&lt;/font&gt;&lt;/span&gt;&lt;span style=&quot;color: rgb(128, 128, 128);&quot;&gt;/&amp;gt;&lt;/span&gt;&lt;/font&gt;&lt;/div&gt;" style="text;html=1;align=center;verticalAlign=middle;resizable=0;points=[];autosize=1;strokeColor=none;fillColor=none;labelBackgroundColor=none;" parent="1" vertex="1">
          <mxGeometry x="230" y="630" width="103" height="31" as="geometry" />
        </mxCell>
        <mxCell id="bAiAI7SaLjIxBLoK_pn7-49" style="rounded=0;orthogonalLoop=1;jettySize=auto;html=1;strokeColor=default;" parent="1" source="bAiAI7SaLjIxBLoK_pn7-33" target="bAiAI7SaLjIxBLoK_pn7-31" edge="1">
          <mxGeometry relative="1" as="geometry">
            <mxPoint x="755" y="470" as="targetPoint" />
          </mxGeometry>
        </mxCell>
        <mxCell id="bAiAI7SaLjIxBLoK_pn7-50" value="&amp;nbsp;" style="text;html=1;align=center;verticalAlign=middle;resizable=0;points=[];autosize=1;strokeColor=none;fillColor=none;" parent="1" vertex="1">
          <mxGeometry x="495" y="413" width="21" height="26" as="geometry" />
        </mxCell>
        <mxCell id="bAiAI7SaLjIxBLoK_pn7-51" value="&lt;font style=&quot;font-size: 8px;&quot;&gt;Contents for the day is found&lt;/font&gt;&lt;div&gt;&lt;font style=&quot;font-size: 8px;&quot;&gt;send them inside a state&amp;nbsp;&lt;/font&gt;&lt;/div&gt;&lt;div&gt;&lt;font style=&quot;font-size: 8px;&quot;&gt;by AppRoutes to &amp;lt;InsideBlockView&amp;gt;&lt;/font&gt;&lt;/div&gt;" style="text;html=1;align=center;verticalAlign=middle;resizable=0;points=[];autosize=1;strokeColor=none;fillColor=none;strokeWidth=0;" parent="1" vertex="1">
          <mxGeometry x="401" y="419" width="146" height="55" as="geometry" />
        </mxCell>
        <mxCell id="bAiAI7SaLjIxBLoK_pn7-55" value="" style="group" parent="1" vertex="1" connectable="0">
          <mxGeometry x="-110" y="456" width="146.5" height="226" as="geometry" />
        </mxCell>
        <mxCell id="bAiAI7SaLjIxBLoK_pn7-53" value="&lt;div style=&quot;font-family: Consolas, &amp;quot;Courier New&amp;quot;, monospace; line-height: 19px; white-space-collapse: preserve; color: rgb(204, 204, 204);&quot;&gt;&lt;font style=&quot;font-size: 11px;&quot;&gt;&lt;span style=&quot;color: rgb(128, 128, 128);&quot;&gt;&amp;lt;&lt;/span&gt;&lt;span style=&quot;color: rgb(128, 128, 128);&quot;&gt;&lt;font color=&quot;#4ec9b0&quot;&gt;ContentOut&lt;/font&gt;&lt;/span&gt;&lt;span style=&quot;color: rgb(128, 128, 128);&quot;&gt;/&amp;gt;&lt;/span&gt;&lt;/font&gt;&lt;/div&gt;" style="text;html=1;align=center;verticalAlign=middle;resizable=0;points=[];autosize=1;strokeColor=none;fillColor=none;labelBackgroundColor=none;" parent="bAiAI7SaLjIxBLoK_pn7-55" vertex="1">
          <mxGeometry x="29.390432098765434" width="97" height="31" as="geometry" />
        </mxCell>
        <mxCell id="bAiAI7SaLjIxBLoK_pn7-54" value="" style="rounded=1;whiteSpace=wrap;html=1;hachureGap=4;fontFamily=Architects Daughter;fontSource=https%3A%2F%2Ffonts.googleapis.com%2Fcss%3Ffamily%3DArchitects%2BDaughter;strokeColor=default;fillColor=none;glass=0;fontStyle=1" parent="bAiAI7SaLjIxBLoK_pn7-55" vertex="1">
          <mxGeometry y="25.384057971014492" width="146.5" height="200.6159420289855" as="geometry" />
        </mxCell>
        <mxCell id="bAiAI7SaLjIxBLoK_pn7-56" value="&lt;span style=&quot;font-size: 8px;&quot;&gt;Contents here is fetched from&amp;nbsp;&lt;/span&gt;&lt;div&gt;&lt;span style=&quot;font-size: 8px;&quot;&gt;state use location&lt;/span&gt;&lt;/div&gt;" style="text;html=1;align=center;verticalAlign=middle;resizable=0;points=[];autosize=1;strokeColor=none;fillColor=none;strokeWidth=0;" parent="1" vertex="1">
          <mxGeometry x="230" y="465" width="125" height="41" as="geometry" />
        </mxCell>
      </root>
    </mxGraphModel>
  </diagram>
</mxfile>
